<mxfile host="app.diagrams.net" modified="2024-06-01T14:21:14.861Z" agent="Mozilla/5.0 (Windows NT 10.0; Win64; x64) AppleWebKit/537.36 (KHTML, like Gecko) Chrome/125.0.0.0 Safari/537.36" etag="WNzF3JKI6J_Tpkwbg1un" version="24.4.13" type="device">
  <diagram name="Page-1" id="gR4ylA50S7jhkGNgOtv1">
    <mxGraphModel dx="1050" dy="565" grid="1" gridSize="10" guides="1" tooltips="1" connect="1" arrows="1" fold="1" page="1" pageScale="1" pageWidth="827" pageHeight="1169" math="0" shadow="0">
      <root>
        <mxCell id="0" />
        <mxCell id="1" parent="0" />
        <mxCell id="D9sbwfcFOuuqkX-QU31P-5" value="&lt;font style=&quot;font-size: 28px;&quot;&gt;user&lt;/font&gt;" style="swimlane;whiteSpace=wrap;html=1;startSize=30;fillStyle=solid;fillColor=#E0E0E0;strokeColor=#36393d;" vertex="1" parent="1">
          <mxGeometry x="190" y="260" width="350" height="110" as="geometry">
            <mxRectangle x="270" y="480" width="120" height="60" as="alternateBounds" />
          </mxGeometry>
        </mxCell>
        <mxCell id="D9sbwfcFOuuqkX-QU31P-6" value="" style="rounded=0;whiteSpace=wrap;html=1;fillColor=#f5f5f5;fontColor=#333333;strokeColor=#666666;" vertex="1" parent="D9sbwfcFOuuqkX-QU31P-5">
          <mxGeometry y="30" width="350" height="40" as="geometry" />
        </mxCell>
        <mxCell id="D9sbwfcFOuuqkX-QU31P-7" value="&lt;span style=&quot;font-size: 16px;&quot;&gt;nic&lt;/span&gt;" style="text;html=1;align=center;verticalAlign=middle;whiteSpace=wrap;rounded=0;" vertex="1" parent="D9sbwfcFOuuqkX-QU31P-5">
          <mxGeometry x="10" y="35" width="80" height="30" as="geometry" />
        </mxCell>
        <mxCell id="D9sbwfcFOuuqkX-QU31P-8" value="" style="rounded=0;whiteSpace=wrap;html=1;fillColor=#f5f5f5;fontColor=#333333;strokeColor=#666666;" vertex="1" parent="D9sbwfcFOuuqkX-QU31P-5">
          <mxGeometry y="70" width="230" height="40" as="geometry" />
        </mxCell>
        <mxCell id="D9sbwfcFOuuqkX-QU31P-9" value="" style="rounded=0;whiteSpace=wrap;html=1;fillColor=#f5f5f5;fontColor=#333333;strokeColor=#666666;" vertex="1" parent="D9sbwfcFOuuqkX-QU31P-5">
          <mxGeometry y="70" width="350" height="40" as="geometry" />
        </mxCell>
        <mxCell id="D9sbwfcFOuuqkX-QU31P-10" value="&lt;span style=&quot;color: rgb(0, 0, 0); font-family: Helvetica; font-size: 16px; font-style: normal; font-variant-ligatures: normal; font-variant-caps: normal; font-weight: 400; letter-spacing: normal; orphans: 2; text-align: center; text-indent: 0px; text-transform: none; widows: 2; word-spacing: 0px; -webkit-text-stroke-width: 0px; white-space: normal; background-color: rgb(251, 251, 251); text-decoration-thickness: initial; text-decoration-style: initial; text-decoration-color: initial; display: inline !important; float: none;&quot;&gt;hashed password&lt;/span&gt;" style="text;whiteSpace=wrap;html=1;" vertex="1" parent="D9sbwfcFOuuqkX-QU31P-5">
          <mxGeometry x="10" y="75" width="140" height="30" as="geometry" />
        </mxCell>
        <mxCell id="D9sbwfcFOuuqkX-QU31P-11" value="&lt;font style=&quot;font-size: 16px;&quot;&gt;Int&lt;/font&gt;" style="text;html=1;align=center;verticalAlign=middle;resizable=0;points=[];autosize=1;strokeColor=none;fillColor=none;" vertex="1" parent="D9sbwfcFOuuqkX-QU31P-5">
          <mxGeometry x="285" y="35" width="40" height="30" as="geometry" />
        </mxCell>
        <mxCell id="D9sbwfcFOuuqkX-QU31P-12" value="&lt;font style=&quot;font-size: 16px;&quot;&gt;string&lt;/font&gt;" style="text;html=1;align=center;verticalAlign=middle;resizable=0;points=[];autosize=1;strokeColor=none;fillColor=none;" vertex="1" parent="D9sbwfcFOuuqkX-QU31P-5">
          <mxGeometry x="275" y="75" width="60" height="30" as="geometry" />
        </mxCell>
      </root>
    </mxGraphModel>
  </diagram>
</mxfile>
